<?xml version="1.0" standalone="no"?>
<!DOCTYPE svg PUBLIC "-//W3C//DTD SVG 20010904//EN"
 "http://www.w3.org/TR/2001/REC-SVG-20010904/DTD/svg10.dtd">
<svg version="1.0" xmlns="http://www.w3.org/2000/svg"
 width="228.000000pt" height="226.000000pt" viewBox="0 0 228.000000 226.000000"
 preserveAspectRatio="xMidYMid meet">
<metadata>
Created by potrace 1.10, written by Peter Selinger 2001-2011
</metadata>
<g transform="translate(0.000000,226.000000) scale(0.050000,-0.050000)"
fill="#000000" stroke="none">
<path d="M1900 4448 c0 -90 -149 -248 -250 -265 -22 -4 -43 -14 -46 -24 -4 -9
-30 -8 -58 3 -47 17 -49 16 -25 -13 24 -29 20 -32 -42 -29 -115 7 -139 1 -139
-30 0 -18 -18 -30 -46 -30 -56 0 -214 -99 -214 -134 0 -14 -12 -20 -27 -14
-25 9 -167 -143 -161 -171 5 -21 -20 -71 -53 -107 -45 -48 -92 -201 -97 -319
-1 -19 -17 -35 -34 -35 -28 0 -29 -5 -5 -34 22 -27 22 -30 0 -18 -19 12 -25 4
-22 -31 3 -26 -1 -60 -7 -77 -41 -100 -204 -1121 -188 -1180 6 -22 2 -35 -8
-29 -10 6 -18 -55 -18 -141 0 -117 -6 -149 -25 -137 -15 8 -12 -1 5 -23 24
-30 24 -34 2 -21 -23 14 -25 9 -14 -21 9 -21 19 -105 22 -188 10 -207 19 -262
99 -570 28 -109 51 -219 51 -243 0 -60 21 -109 41 -97 15 10 39 -39 38 -76 -1
-26 57 -74 90 -74 17 0 31 -7 31 -17 0 -18 133 -64 147 -50 31 31 286 22 342
-12 34 -20 102 -42 151 -49 85 -11 394 -37 460 -37 17 0 41 -9 54 -19 13 -11
45 -16 70 -13 25 3 57 -1 71 -10 14 -8 25 -7 25 2 0 10 34 16 75 13 671 -44
1013 -8 1151 123 31 29 68 48 83 42 14 -5 37 1 50 14 18 18 29 15 48 -10 21
-29 32 -30 87 -7 34 15 68 21 74 15 7 -6 12 -1 12 13 0 13 8 20 17 14 10 -6
44 18 75 54 66 73 142 185 113 167 -23 -14 -19 60 4 82 10 8 11 4 4 -9 -8 -13
-7 -28 2 -33 9 -5 17 23 18 64 3 99 18 181 38 199 8 8 10 -2 3 -21 -7 -19 -4
-35 7 -35 10 0 19 18 19 41 0 23 36 110 80 195 79 153 80 156 88 424 13 382
34 607 60 627 14 10 11 13 -8 8 -21 -6 -32 -41 -36 -122 -3 -62 -13 -113 -21
-113 -8 0 -13 27 -11 61 10 141 32 330 41 344 5 8 0 15 -12 15 -11 0 -21 16
-21 35 1 30 3 31 20 5 24 -36 19 34 -5 72 -7 12 -19 84 -26 160 -12 137 -81
499 -101 531 -6 9 -15 55 -20 102 -6 46 -30 116 -53 153 -35 57 -37 67 -10 57
23 -9 30 -4 22 16 -6 16 -19 24 -29 18 -10 -6 -18 1 -18 16 0 15 -27 69 -60
121 -55 87 -57 103 -14 96 10 -2 11 7 3 19 -7 12 -18 17 -23 11 -14 -13 -66
39 -66 67 0 11 -7 21 -16 21 -9 0 -34 14 -55 31 -22 18 -27 26 -13 18 22 -11
22 -6 1 28 -18 30 -30 35 -41 17 -12 -18 -15 -18 -16 2 0 15 -9 21 -20 14 -12
-7 -14 2 -6 22 8 23 5 30 -9 21 -12 -8 -28 -4 -35 7 -7 11 -20 16 -29 10 -9
-5 -22 5 -29 22 -7 19 -25 27 -43 20 -18 -6 -26 -3 -19 8 7 11 3 20 -9 20 -12
0 -60 18 -106 40 -47 21 -119 46 -161 55 -42 8 -77 24 -78 35 -1 11 -28 36
-59 55 -31 19 -57 48 -57 65 0 16 -8 30 -18 30 -28 0 -39 74 -15 101 17 19 17
21 -2 11 -18 -10 -25 4 -25 47 0 59 -3 61 -90 61 l-90 0 -2 -95 c-1 -52 -1
-115 1 -139 4 -50 -83 -118 -121 -95 -15 9 -19 7 -11 -6 13 -22 -28 -45 -80
-45 -24 0 -28 32 -21 190 l9 190 -78 0 -77 0 0 -165 c-1 -184 -16 -225 -74
-207 -36 12 -39 28 -33 192 4 108 -2 180 -13 180 -11 0 -20 -38 -20 -85 0 -47
-1 -100 -2 -118 0 -18 -17 -48 -38 -67 -51 -47 -80 10 -80 159 l0 111 -100 0
-100 0 0 -72z m132 -165 c-18 -29 51 -77 216 -153 l157 -71 113 32 c61 18 150
53 196 78 97 54 106 50 106 -52 0 -50 9 -77 26 -77 14 0 102 -32 195 -71 93
-40 183 -77 199 -82 340 -118 540 -378 618 -807 13 -71 36 -188 52 -260 66
-312 92 -660 80 -1080 -15 -537 -20 -567 -93 -651 -72 -81 -166 -331 -186
-495 l-14 -117 -134 5 c-73 2 -144 8 -158 13 -30 11 -34 105 -5 105 11 0 20
-20 20 -44 0 -40 3 -41 31 -14 44 44 62 177 27 200 -22 14 -21 17 7 18 19 0
35 9 35 19 0 28 -78 66 -109 54 -75 -29 6 68 105 126 177 104 304 241 223 241
-27 0 -119 -92 -119 -119 0 -35 -111 -82 -136 -57 -30 30 -82 6 -103 -49 -14
-37 -18 -28 -17 45 0 50 -6 139 -15 198 -11 79 -9 104 8 94 13 -8 24 -1 26 17
7 88 -6 84 177 66 41 -4 51 5 56 50 7 61 -17 72 -56 25 -33 -39 -118 -39 -133
1 -14 35 45 87 99 88 51 1 64 53 26 110 -42 64 -41 67 16 64 27 -2 44 -10 39
-18 -5 -8 0 -15 12 -15 12 0 27 13 34 30 6 16 24 30 40 30 21 0 26 12 17 40
-8 26 -2 44 17 52 38 14 58 64 38 95 -8 13 -16 30 -17 38 -2 8 -4 22 -6 30 -4
22 -82 -155 -82 -187 0 -38 -53 -36 -67 2 -14 35 -93 -18 -93 -62 0 -37 -55
-49 -68 -15 -21 55 -13 105 24 141 111 109 158 286 76 286 -28 0 -30 104 -2
124 10 8 -3 23 -30 34 -39 15 -42 20 -13 21 25 1 33 11 25 32 -6 18 -3 49 8
70 30 55 61 233 47 270 -11 29 -60 -35 -76 -101 -23 -94 -106 -118 -96 -28 3
27 7 72 10 101 3 29 11 49 19 45 16 -11 27 22 65 207 17 79 57 193 91 251 65
115 70 134 41 134 -25 0 -174 -299 -229 -460 -43 -127 -44 -142 -25 -588 19
-454 -8 -802 -85 -1102 -8 -33 -8 -86 1 -118 8 -32 11 -149 5 -260 -5 -111 -9
-250 -8 -308 1 -157 -53 -177 -550 -194 -438 -16 -1402 48 -1441 95 -70 85
-95 484 -42 649 18 53 41 176 53 275 12 98 27 186 33 195 6 10 18 164 28 342
10 178 31 417 49 531 52 349 31 701 -48 797 -34 41 -62 92 -62 112 0 21 -17
42 -38 48 -24 6 -47 44 -67 113 l-30 103 -3 -95 c-2 -111 76 -299 175 -423 35
-43 63 -87 63 -99 0 -11 -13 -3 -29 18 -48 67 -59 -13 -20 -145 43 -142 48
-364 11 -491 l-27 -96 -49 101 c-30 63 -44 118 -36 146 10 35 8 38 -8 14 -17
-24 -21 -18 -22 30 0 33 -14 86 -30 117 -33 62 -41 122 -11 74 16 -26 21 -25
32 5 8 19 -1 56 -19 83 -18 27 -32 63 -32 80 0 17 -4 31 -8 31 -5 0 -25 5 -45
12 -33 10 -34 8 -6 -15 52 -45 63 -99 26 -127 -55 -40 18 -397 123 -610 65
-130 86 -204 42 -150 -29 37 -31 31 -25 -99 3 -84 15 -142 29 -146 42 -14 26
-85 -24 -108 -49 -22 -59 -100 -23 -182 11 -25 6 -35 -17 -35 -18 0 -30 7 -28
15 13 48 -29 101 -76 96 -134 -15 -142 -190 -13 -297 25 -20 46 -61 47 -90 2
-34 6 -41 12 -19 10 40 46 48 46 10 0 -14 -23 -61 -50 -105 -43 -69 -49 -72
-38 -25 13 56 -1 66 -60 43 -46 -18 -39 -61 20 -139 30 -39 42 -69 28 -69 -16
0 -20 -17 -12 -50 9 -37 5 -50 -18 -50 -16 0 -30 -9 -30 -20 0 -11 14 -20 32
-20 18 0 28 -11 23 -25 -5 -14 -2 -43 8 -65 11 -26 15 2 11 85 -4 69 1 118 9
110 19 -19 28 -146 21 -301 l-4 -105 -175 6 -175 7 -17 119 c-9 65 -29 165
-46 221 -133 461 -140 864 -27 1548 210 1277 295 1456 760 1600 105 32 243 77
308 99 65 23 130 41 144 41 15 0 31 38 39 95 16 108 23 125 51 125 11 0 16 -8
10 -17z"/>
<path d="M1966 3973 c8 -21 3 -33 -15 -33 -17 0 -24 -14 -18 -37 7 -26 -3 -41
-31 -48 -23 -6 -42 -3 -42 6 0 10 -18 27 -40 39 -36 19 -38 17 -20 -31 11 -28
13 -47 5 -42 -9 5 -33 -4 -55 -21 -38 -29 -38 -30 10 -15 107 33 232 17 155
-20 -26 -12 39 1 100 20 34 11 138 -64 118 -85 -8 -8 -242 -42 -346 -51 -13
-1 -18 -14 -13 -29 11 -27 84 -17 106 14 6 8 69 15 140 16 l130 1 -143 -26
c-175 -32 -193 -43 -182 -103 5 -27 2 -48 -8 -48 -9 0 -17 -10 -17 -22 0 -12
14 -17 31 -10 18 7 36 -2 43 -23 7 -19 22 -41 34 -49 11 -8 13 -21 4 -30 -10
-9 -21 -5 -26 9 -11 30 -66 34 -66 5 0 -11 9 -20 21 -20 11 0 19 -46 16 -110
-2 -86 -10 -110 -35 -110 -18 0 -3 -18 34 -40 36 -23 61 -49 55 -59 -6 -9 0
-21 13 -26 15 -5 11 -12 -10 -21 -19 -7 -34 -4 -34 7 0 10 -10 19 -21 19 -12
0 -19 -20 -16 -45 3 -25 -1 -56 -9 -69 -8 -13 -6 -29 6 -36 38 -23 20 -83 -31
-107 -28 -13 -46 -32 -39 -43 7 -12 20 -16 30 -10 22 13 36 -38 37 -135 1 -42
11 -93 23 -116 12 -22 16 -49 10 -60 -17 -26 65 -139 101 -139 44 0 35 59 -16
102 -42 36 -43 40 -10 65 43 34 47 113 5 113 -16 0 -30 10 -30 21 0 12 -8 16
-18 10 -34 -21 -37 87 -3 118 48 44 193 41 219 -4 12 -19 22 -30 22 -25 14 83
13 182 -2 191 -10 6 -18 -15 -18 -48 0 -58 -3 -59 -115 -67 -138 -10 -151 -5
-121 43 18 29 18 45 -3 70 -31 37 -31 36 48 62 62 20 74 60 41 137 -11 25 -7
45 13 60 70 52 60 92 -24 92 -66 0 -79 7 -79 40 0 22 9 40 20 40 11 0 20 -8
20 -17 0 -9 26 -18 59 -19 46 -1 58 7 55 37 -1 22 -14 39 -27 39 -38 0 -51 35
-28 78 29 54 10 91 -70 134 -83 45 -50 73 113 96 109 16 162 -52 68 -88 -71
-27 -75 -54 -6 -44 57 9 61 6 52 -43 -6 -29 -2 -53 8 -53 10 0 11 -11 2 -25
-46 -73 -18 -135 60 -135 42 0 72 -8 66 -17 -6 -9 2 -34 19 -55 25 -34 28 3
26 328 -1 201 4 371 10 378 19 19 16 146 -4 146 -29 0 -65 -155 -50 -214 44
-170 12 -426 -52 -426 -11 0 -21 -22 -21 -49 0 -27 -7 -53 -16 -59 -9 -5 -15
32 -15 82 1 78 9 95 51 112 l50 20 -60 15 c-33 8 -44 15 -24 17 32 2 33 6 8
31 -27 27 -20 157 15 269 13 41 -36 93 -68 72 -12 -7 -16 -21 -10 -31 6 -11 2
-19 -9 -19 -31 0 -50 43 -25 58 15 9 4 29 -32 54 -98 72 -113 78 -99 41z m88
-81 c-6 -15 -1 -37 12 -50 16 -16 13 -22 -11 -22 -18 0 -38 9 -46 21 -17 28 4
79 33 79 12 0 18 -12 12 -28z"/>
<path d="M2797 3965 c-10 -111 -35 -165 -78 -165 -43 0 -53 51 -14 67 16 6 14
10 -7 11 -90 5 -261 -174 -208 -218 25 -21 30 -17 30 20 0 32 9 41 32 32 23
-9 29 -4 21 16 -6 16 3 34 19 40 19 7 25 3 16 -12 -10 -15 -3 -18 22 -9 28 11
31 8 13 -13 -50 -60 15 -128 136 -142 70 -9 113 -6 117 7 4 12 39 21 77 21 45
0 65 8 56 22 -8 13 -39 17 -72 10 -34 -6 -54 -4 -48 7 7 10 -9 18 -34 16 -137
-7 -195 5 -195 43 0 52 111 73 173 32 59 -39 57 -40 59 29 1 34 -10 64 -26 70
-16 6 -24 19 -17 29 6 10 -4 23 -21 30 -21 8 -29 27 -22 52 6 22 2 40 -8 40
-10 0 -19 -16 -21 -35z m81 -338 c5 -4 -33 -7 -83 -7 -51 0 -98 8 -103 18 -10
16 167 6 186 -11z"/>
<path d="M2415 3847 c31 -64 36 -68 42 -29 9 61 -10 102 -46 102 -26 0 -26
-10 4 -73z"/>
<path d="M2340 3632 c0 -16 11 -33 25 -38 34 -12 99 24 84 47 -18 30 -109 23
-109 -9z"/>
<path d="M3298 3585 c-3 -75 -3 -75 -18 -15 l-15 60 -3 -58 c-1 -32 22 -106
50 -165 35 -71 54 -144 55 -215 2 -59 10 -98 18 -85 9 15 14 10 15 -13 0 -83
38 -5 49 101 10 100 26 189 63 355 7 27 -1 22 -22 -15 -17 -31 -39 -107 -48
-170 -12 -88 -19 -106 -32 -75 -9 22 -28 54 -44 72 -31 37 -39 145 -17 216 12
37 9 43 -12 31 -22 -14 -22 -11 0 17 24 29 23 34 -5 34 -23 0 -33 -20 -34 -75z"/>
<path d="M2616 3609 c-7 -11 -11 -48 -8 -83 4 -56 -1 -62 -47 -57 -54 6 -83
-20 -68 -60 7 -19 23 -19 69 -2 47 18 63 17 76 -4 12 -19 21 -21 31 -5 7 12 4
22 -7 22 -11 0 -18 18 -16 40 1 22 12 37 23 33 12 -5 19 -17 17 -28 -2 -10 18
-15 45 -10 67 13 61 33 -15 56 -45 13 -68 35 -76 69 -7 27 -17 41 -24 29z"/>
<path d="M2463 3582 c-21 -13 -20 -19 7 -29 58 -22 110 -14 110 17 0 33 -72
41 -117 12z"/>
<path d="M1301 3564 c0 -8 22 -86 47 -173 l47 -159 -3 143 c-1 79 -8 128 -16
109 -10 -25 -14 -21 -15 19 0 29 -14 58 -31 64 -16 7 -30 5 -29 -3z"/>
<path d="M3010 3488 c15 -29 22 -68 15 -85 -8 -26 -5 -28 14 -10 16 15 19 39
9 70 -9 26 -14 54 -12 62 2 8 -9 15 -25 15 -24 0 -25 -8 -1 -52z"/>
<path d="M2900 3502 c0 -13 -9 -19 -20 -12 -11 7 -20 3 -20 -9 0 -11 -12 -21
-28 -21 -34 0 -32 -64 3 -86 38 -24 30 -70 -15 -84 -22 -7 -35 -21 -29 -31 6
-11 2 -19 -10 -19 -11 0 -21 -10 -21 -21 0 -12 16 -20 35 -18 87 9 125 -2 123
-36 -1 -21 -5 -25 -11 -10 -12 30 -67 34 -67 5 0 -11 9 -20 20 -20 11 0 20
-11 20 -24 0 -18 -6 -18 -22 -2 -25 25 -78 13 -78 -16 0 -10 13 -18 28 -18 38
0 59 -62 30 -88 -18 -16 -20 -15 -8 6 11 19 9 23 -7 14 -13 -8 -20 -21 -15
-29 29 -47 -113 -115 -149 -72 -13 16 -16 29 -6 29 15 0 21 139 10 235 -2 15
-34 25 -83 25 -95 0 -109 -39 -15 -43 48 -2 53 -5 20 -11 -25 -5 -40 -18 -33
-29 6 -11 -7 -25 -31 -31 -27 -7 -39 -22 -32 -40 6 -16 11 -33 11 -38 0 -4 9
-8 20 -8 11 0 20 14 20 31 0 23 12 28 40 19 29 -9 40 -4 40 20 0 18 8 27 18
21 38 -23 -9 -121 -55 -115 -41 6 -62 -26 -25 -39 9 -4 36 -43 60 -87 23 -44
42 -64 42 -46 0 33 101 96 155 96 45 0 77 -45 91 -127 l12 -78 -129 9 c-81 5
-127 0 -123 -12 4 -11 52 -18 108 -15 116 6 125 -1 111 -92 -10 -68 -90 -97
-111 -40 -5 14 -16 18 -26 8 -10 -9 -1 -29 22 -46 22 -16 37 -45 34 -65 -3
-21 9 -43 28 -50 28 -11 25 -19 -20 -54 -58 -45 -69 -98 -21 -98 17 0 29 11
28 25 -7 48 1 75 21 75 11 0 20 -22 20 -50 0 -32 11 -50 31 -50 24 0 28 11 17
45 -32 102 -43 176 -26 186 10 6 18 2 18 -10 0 -11 8 -21 17 -21 9 0 13 46 7
103 -8 85 -3 108 28 131 37 28 37 29 -2 58 -31 23 -34 36 -17 64 24 39 12 164
-15 164 -10 0 -17 34 -17 75 1 43 8 62 15 45 14 -31 84 -48 84 -20 0 8 -14 26
-30 40 -19 16 -24 34 -13 48 34 42 -11 117 -55 93 -52 -28 -62 -26 -62 7 0 32
114 78 145 59 11 -7 16 0 11 15 -5 15 -29 25 -53 22 -24 -4 -43 4 -43 16 0 12
8 18 17 12 10 -6 14 22 9 63 -8 71 -26 118 -26 67z"/>
<path d="M2556 3310 c-12 -27 -30 -50 -39 -50 -64 0 0 -34 69 -37 78 -3 86 2
89 47 3 28 -5 50 -16 50 -12 0 -16 9 -9 20 7 11 -6 20 -29 20 -25 0 -51 -20
-65 -50z"/>
<path d="M2140 3177 c0 -8 16 -18 35 -23 25 -7 22 -10 -12 -12 -44 -2 -46 -8
-40 -122 5 -86 0 -120 -18 -120 -14 0 -25 -10 -25 -21 0 -12 20 -19 45 -15 32
4 44 18 41 49 -4 34 4 41 35 33 21 -6 39 -1 39 12 0 12 -18 22 -40 22 -50 0
-52 32 -3 58 56 30 83 -11 83 -125 0 -101 -82 -313 -121 -313 -28 0 -23 -55 6
-67 17 -7 16 -10 -5 -11 -40 -3 -45 -342 -5 -342 14 0 25 14 25 30 0 34 17 37
59 11 44 -28 4 -53 -92 -59 -29 -2 -46 -222 -17 -222 11 0 7 -10 -10 -22 -23
-16 -24 -24 -5 -31 14 -6 25 -24 25 -40 0 -16 -9 -24 -20 -17 -11 7 -20 -9
-20 -35 0 -65 -13 -74 -78 -56 -64 19 -154 -28 -97 -50 17 -6 43 -9 58 -6 124
25 188 -98 67 -128 -37 -10 -37 -11 4 -13 41 -2 44 -11 40 -122 l-4 -119 95 2
c52 1 95 11 95 22 0 11 -27 16 -60 11 -50 -8 -63 -1 -72 36 -14 55 6 94 41 81
18 -7 16 14 -7 79 -26 73 -27 95 -6 130 18 28 20 49 6 66 -24 29 14 177 41
160 9 -6 17 12 17 40 0 35 -9 47 -27 40 -16 -6 -32 6 -38 28 -8 30 1 38 43 36
44 -2 51 -10 45 -52 -4 -27 -1 -45 5 -38 46 45 64 1155 18 1151 -19 -2 -36 11
-37 27 -2 17 -4 41 -6 55 -3 25 -103 28 -103 2z m121 -522 c19 -120 19 -295 0
-295 -51 0 -79 48 -49 82 20 22 24 46 12 78 -20 53 -8 140 18 140 10 0 18 -2
19 -5z"/>
<path d="M2394 3124 c-33 -4 -53 -17 -48 -30 8 -22 90 -25 110 -5 22 22 -12
40 -62 35z"/>
<path d="M2498 2810 c-4 -33 3 -109 16 -170 14 -60 19 -131 13 -157 -11 -42
-7 -46 35 -34 38 11 42 9 18 -9 -24 -18 -21 -21 20 -16 65 8 74 62 21 129 -22
29 -41 73 -41 98 0 25 -10 49 -22 53 -13 4 -29 43 -37 87 -14 76 -15 77 -23
19z"/>
<path d="M2680 2740 c72 -23 223 -23 170 0 -22 9 -80 17 -130 17 -74 -1 -81
-4 -40 -17z"/>
<path d="M2980 2565 c0 -10 6 -25 14 -32 14 -14 20 -34 40 -137 14 -73 66
-119 66 -58 0 23 -8 58 -18 77 -9 19 -25 61 -35 93 -16 55 -67 98 -67 57z"/>
<path d="M2385 2546 c-62 -12 -58 -66 5 -66 37 0 50 11 50 40 0 22 -2 39 -5
37 -3 -1 -25 -6 -50 -11z"/>
<path d="M2487 2341 c8 -46 5 -84 -7 -91 -11 -7 -16 -21 -10 -31 14 -21 14
-146 2 -304 -5 -63 -1 -115 10 -115 10 0 18 27 18 60 0 41 10 60 31 60 17 0
27 -8 21 -17 -6 -10 5 -32 25 -50 36 -33 41 -192 9 -273 -7 -16 -11 -38 -8
-47 2 -10 -5 -28 -16 -41 -12 -14 -13 -34 -1 -53 16 -25 18 -25 19 1 1 25 4
25 18 3 9 -15 13 -44 8 -64 -12 -44 -66 -69 -66 -30 0 21 -26 25 -115 17 -138
-12 -125 -2 -106 -86 10 -39 18 -59 19 -45 3 36 42 31 42 -6 0 -18 10 -25 22
-18 15 10 15 20 0 35 -37 37 -26 44 76 46 168 4 208 69 133 213 -16 30 -20 55
-10 55 11 0 19 -9 19 -20 0 -11 14 -20 30 -20 17 0 30 9 30 20 0 11 -9 20 -21
20 -13 0 -16 48 -8 135 14 147 61 217 132 194 29 -9 37 -1 37 35 1 83 22 128
76 163 l54 35 -50 -14 c-53 -14 -79 -42 -80 -83 0 -14 -9 -25 -20 -25 -11 0
-20 -14 -20 -30 0 -29 -74 -70 -126 -70 -17 0 -23 47 -20 160 3 93 -3 160 -15
160 -10 0 -19 -13 -19 -30 0 -33 -31 -41 -48 -13 -14 22 57 88 75 70 7 -8 13
10 13 38 0 28 6 66 12 84 13 33 -59 33 -112 1 -11 -7 -20 2 -20 19 0 17 -10
31 -23 31 -15 0 -18 -26 -10 -79z m93 -307 c52 -42 44 -74 -20 -74 -45 0 -60
9 -60 37 0 64 30 78 80 37z"/>
<path d="M1815 2272 c-6 -35 -1 -45 18 -38 15 6 27 0 27 -12 0 -12 13 -22 29
-22 32 0 60 -69 41 -100 -16 -26 11 -25 50 1 26 17 25 24 -9 49 -21 17 -30 30
-20 31 11 0 1 16 -22 35 -23 19 -47 50 -54 69 -19 50 -49 43 -60 -13z"/>
<path d="M2805 2206 c-25 -5 -45 -18 -45 -30 0 -12 21 -15 52 -7 33 8 47 5 38
-8 -7 -12 -3 -21 9 -21 11 0 21 11 21 25 1 17 5 18 15 4 8 -12 32 -28 54 -36
37 -14 37 -13 5 23 -19 20 -28 43 -21 51 14 14 -53 13 -128 -1z"/>
<path d="M1813 2187 c-24 -25 -13 -46 17 -34 17 6 30 2 30 -10 0 -11 -18 -26
-40 -33 -47 -15 -54 -50 -10 -50 17 0 30 11 30 24 0 13 19 3 42 -22 28 -29 39
-62 33 -94 -7 -34 2 -55 26 -69 47 -25 85 -24 69 1 -7 12 -21 15 -31 9 -11 -6
-20 0 -21 15 -3 57 -16 96 -45 137 -16 24 -25 57 -19 73 16 41 -50 84 -81 53z"/>
<path d="M922 2061 c-34 -21 -15 -81 26 -81 16 0 43 -5 60 -12 21 -8 32 -1 32
20 0 18 -13 32 -29 32 -16 0 -36 13 -45 29 -11 19 -26 23 -44 12z"/>
<path d="M1789 1999 c-24 -39 32 -143 64 -117 29 25 38 98 11 98 -9 0 -28 -11
-42 -25 -22 -20 -24 -17 -13 20 14 47 3 60 -20 24z"/>
<path d="M2960 1944 c0 -20 11 -47 25 -61 20 -20 19 -28 -3 -42 -24 -15 -24
-22 3 -48 43 -44 58 17 28 115 -24 76 -53 96 -53 36z"/>
<path d="M1022 1812 c-18 -21 -16 -30 9 -40 54 -20 69 -14 69 28 0 46 -44 53
-78 12z"/>
<path d="M2280 1803 c0 -27 96 -63 132 -50 23 9 10 20 -45 40 -92 32 -87 31
-87 10z"/>
<path d="M1672 1728 c-16 -43 -17 -42 28 -54 32 -8 40 0 40 38 0 54 -49 66
-68 16z"/>
<path d="M992 1722 c-15 -24 140 -128 172 -116 17 6 8 18 -24 32 -45 21 -46
22 -5 14 64 -12 56 21 -14 57 -66 35 -113 40 -129 13z"/>
<path d="M2891 1704 c-11 -26 -17 -27 -30 -6 -10 17 -20 19 -29 5 -21 -34 65
-71 99 -42 37 30 37 52 1 66 -16 6 -34 -4 -41 -23z"/>
<path d="M1672 1537 c-57 -82 -30 -104 48 -41 39 31 40 39 14 61 -25 21 -36
17 -62 -20z"/>
<path d="M1818 1568 c-1 -10 -3 -37 -6 -60 -4 -33 4 -39 42 -32 45 9 64 -22
27 -45 -11 -7 -15 -24 -9 -38 5 -14 -8 -81 -29 -149 -21 -68 -31 -124 -21
-124 10 0 18 14 18 30 0 17 8 30 17 30 10 0 13 -24 7 -53 -7 -37 -3 -49 13
-39 13 8 18 23 12 33 -6 11 -2 19 10 19 11 0 21 -13 21 -28 0 -16 7 -32 15
-37 8 -5 4 -6 -8 -3 -13 3 -28 -5 -32 -18 -17 -46 6 -67 65 -58 34 5 54 17 47
29 -8 14 6 16 40 8 42 -11 53 -7 53 20 0 19 16 52 35 73 34 39 34 39 -15 14
-45 -24 -47 -23 -24 5 17 21 19 36 5 44 -12 8 -21 2 -21 -12 0 -19 -5 -20 -24
-1 -38 38 -50 28 -40 -36 5 -33 18 -60 30 -60 11 0 15 -6 8 -13 -20 -19 -114
50 -114 85 0 17 -7 26 -16 20 -9 -5 -27 8 -40 28 -25 41 -1 73 38 49 12 -8 30
-2 40 13 28 44 21 63 -18 53 -38 -10 -49 51 -18 100 9 14 10 35 3 47 -8 12 -4
29 8 36 13 8 6 23 -21 40 -37 23 -40 22 -29 -8 9 -22 4 -30 -12 -25 -14 5 -25
18 -25 30 0 27 -29 58 -32 33z"/>
<path d="M2700 1518 c0 -12 18 -27 41 -32 28 -8 37 -22 29 -47 -7 -20 -2 -41
9 -48 34 -21 24 -71 -17 -87 -38 -14 -38 -15 0 -61 21 -26 38 -37 38 -25 0 12
11 20 25 17 18 -4 25 32 23 131 -1 89 5 126 16 105 25 -44 54 -39 42 7 -10 41
-80 70 -90 39 -4 -12 -27 -12 -61 1 -39 15 -55 15 -55 0z"/>
<path d="M1665 1439 c-25 -10 -45 -27 -45 -38 0 -12 20 -21 45 -22 42 0 42 -2
10 -27 -19 -14 -35 -46 -35 -70 0 -25 -9 -39 -19 -32 -11 6 -35 -41 -53 -104
-19 -64 -43 -131 -55 -150 -12 -19 -15 -40 -8 -48 18 -17 119 49 107 69 -6 9
8 45 29 80 21 35 39 82 39 103 0 22 18 87 40 145 22 58 40 107 40 110 0 10
-52 2 -95 -16z"/>
<path d="M2878 1275 c-2 -19 -5 -46 -6 -60 -1 -14 -11 -31 -21 -39 -11 -8 -4
-20 16 -28 20 -7 46 -3 58 9 17 17 17 23 -1 23 -13 0 -24 10 -24 21 0 12 9 16
20 9 30 -18 24 17 -9 61 -27 36 -30 36 -33 4z"/>
<path d="M3480 1270 c-14 -16 -37 -30 -52 -30 -16 0 -28 -9 -28 -20 0 -11 12
-20 28 -20 15 0 38 -13 52 -30 41 -50 60 -34 60 50 0 84 -19 100 -60 50z"/>
<path d="M2284 1190 c17 -18 -38 -76 -59 -63 -9 5 -38 -3 -65 -18 -32 -17 -38
-28 -19 -28 17 -1 44 10 59 24 24 21 24 20 3 -8 -20 -27 -20 -35 1 -45 14 -6
6 -7 -19 0 -25 6 -45 2 -45 -8 0 -26 98 -43 112 -20 7 10 25 6 43 -8 25 -21
33 -21 40 -1 5 14 17 25 28 25 11 0 13 -10 6 -22 -9 -15 1 -14 31 2 l45 24
-58 34 c-50 31 -60 31 -86 6 -18 -19 -32 -21 -36 -8 -10 28 70 107 82 82 6
-10 8 -8 5 7 -3 14 -23 28 -44 32 -21 4 -32 1 -24 -7z"/>
<path d="M2654 1183 c-21 -8 -37 -23 -37 -34 0 -10 -17 -25 -38 -33 -22 -8
-39 -6 -39 5 0 28 -33 23 -65 -9 -16 -16 -26 -49 -23 -75 2 -26 5 -69 6 -95 2
-59 32 -36 32 24 0 25 20 53 50 68 28 14 48 34 46 44 -3 10 15 13 39 7 36 -10
37 -14 10 -23 -22 -8 -28 -21 -17 -39 12 -19 21 -20 31 -5 9 15 26 13 57 -7
64 -41 165 -19 120 26 -31 31 -30 33 11 40 51 7 49 47 -3 54 -19 3 -29 -3 -23
-13 6 -10 2 -18 -8 -18 -11 0 -24 16 -29 35 -5 20 -11 9 -12 -25 -3 -57 -5
-58 -33 -21 -16 21 -24 55 -18 75 12 38 1 42 -57 19z"/>
<path d="M1704 679 c-1 -45 7 -75 17 -68 21 13 18 127 -3 140 -7 5 -14 -28
-14 -72z"/>
</g>
</svg>
