<?xml version="1.0" standalone="no"?>
<!DOCTYPE svg PUBLIC "-//W3C//DTD SVG 20010904//EN"
 "http://www.w3.org/TR/2001/REC-SVG-20010904/DTD/svg10.dtd">
<svg version="1.0" xmlns="http://www.w3.org/2000/svg"
 width="215.000000pt" height="230.000000pt" viewBox="0 0 215.000000 230.000000"
 preserveAspectRatio="xMidYMid meet">
<metadata>
Created by potrace 1.10, written by Peter Selinger 2001-2011
</metadata>
<g transform="translate(0.000000,230.000000) scale(0.050000,-0.050000)"
fill="#000000" stroke="none">
<path d="M1543 4282 c-166 -168 -192 -186 -465 -317 -347 -168 -321 -133 -505
-706 -301 -941 -371 -1461 -313 -2349 30 -463 9 -429 270 -429 267 0 243 -49
256 529 8 397 19 539 52 690 40 190 183 666 196 653 3 -3 20 -109 36 -233 55
-419 34 -801 -82 -1494 -76 -455 -90 -436 391 -517 417 -69 636 3 800 263 17
28 26 31 34 12 111 -265 417 -351 915 -256 255 49 340 96 323 179 -113 557
-184 1326 -153 1663 41 438 46 443 137 140 140 -462 164 -638 165 -1173 0
-494 -20 -460 272 -453 l216 6 16 70 c8 39 21 318 28 620 21 858 -47 1277
-360 2217 -132 398 -139 406 -483 576 -237 117 -279 147 -443 308 l-181 179
-473 0 -473 0 -176 -178z m1017 2 c0 -18 -197 -929 -273 -1264 -29 -126 -57
-255 -62 -285 -9 -51 -45 -100 -45 -60 0 9 -41 197 -91 416 -140 615 -269
1192 -269 1201 0 4 167 8 370 8 204 0 370 -7 370 -16z m-128 -2419 c47 -31 49
-98 6 -153 -53 -67 -115 -62 -156 11 -58 103 52 207 150 142z m-591 -666 c46
-24 53 -129 10 -146 -25 -10 -305 -17 -526 -14 -90 1 -125 93 -61 157 30 30
522 33 577 3z m1275 -3 c60 -60 29 -156 -51 -157 -279 -5 -517 6 -539 25 -33
26 -34 100 -2 132 33 33 559 33 592 0z"/>
</g>
</svg>
