<?xml version="1.0" standalone="no"?>
<!DOCTYPE svg PUBLIC "-//W3C//DTD SVG 20010904//EN"
 "http://www.w3.org/TR/2001/REC-SVG-20010904/DTD/svg10.dtd">
<svg version="1.0" xmlns="http://www.w3.org/2000/svg"
 width="267.000000pt" height="642.000000pt" viewBox="0 0 267.000000 642.000000"
 preserveAspectRatio="xMidYMid meet">
<metadata>
Created by potrace 1.10, written by Peter Selinger 2001-2011
</metadata>
<g transform="translate(0.000000,642.000000) scale(0.100000,-0.100000)"
fill="#000000" stroke="none">
<path d="M545 5870 c-82 -4 -151 -12 -167 -19 -19 -10 -32 -30 -46 -70 -41
-118 -49 -152 -79 -371 -23 -162 -23 -662 0 -1255 9 -231 21 -537 27 -680 6
-143 15 -307 20 -365 5 -58 12 -189 15 -292 4 -104 11 -216 16 -250 5 -35 9
-111 9 -169 0 -59 7 -219 15 -355 8 -137 19 -346 25 -464 6 -118 18 -318 25
-445 8 -126 19 -313 25 -415 5 -102 14 -215 20 -252 5 -37 10 -95 10 -130 0
-35 4 -68 8 -74 4 -6 32 -27 62 -45 l55 -34 145 0 c166 0 251 19 293 64 36 38
47 146 76 729 6 116 16 308 22 425 6 116 15 304 19 417 5 113 14 248 19 300 6
52 11 151 11 220 1 69 5 159 11 200 11 88 22 213 38 440 6 91 16 206 22 255 6
50 14 145 19 213 5 67 12 127 15 133 4 6 11 63 16 127 10 145 36 414 44 464 9
52 30 67 57 41 23 -24 42 -126 58 -313 6 -63 12 -124 15 -135 5 -19 18 -163
50 -570 14 -171 23 -270 54 -575 15 -142 29 -384 41 -675 21 -542 31 -754 40
-875 6 -69 15 -197 20 -285 34 -517 33 -513 105 -564 l50 -35 170 0 c153 0
175 2 215 22 90 42 93 49 101 247 4 96 10 188 14 203 6 27 11 137 35 697 6
143 17 339 25 435 9 96 15 220 15 275 0 55 5 129 10 165 6 36 15 164 20 285
18 437 30 693 40 860 5 94 12 285 15 425 6 281 10 364 25 555 6 71 12 323 13
560 2 393 0 433 -15 462 -13 22 -18 54 -18 104 0 40 -4 86 -10 103 -5 17 -19
65 -30 106 -26 90 -57 157 -79 166 -34 14 -422 22 -1041 21 -355 0 -708 -3
-785 -7z"/>
<path d="M2553 4550 c0 -25 2 -35 4 -22 2 12 2 32 0 45 -2 12 -4 2 -4 -23z"/>
<path d="M2553 4415 c0 -33 2 -45 4 -27 2 18 2 45 0 60 -2 15 -4 0 -4 -33z"/>
<path d="M1348 3885 c-12 -62 -10 -161 2 -149 7 7 10 47 8 100 -2 73 -4 82
-10 49z"/>
<path d="M1316 3578 c-9 -36 -7 -78 4 -78 6 0 10 23 10 50 0 54 -4 63 -14 28z"/>
<path d="M1293 3355 c0 -22 2 -30 4 -17 2 12 2 30 0 40 -3 9 -5 -1 -4 -23z"/>
<path d="M1227 2556 c-7 -47 -4 -66 9 -54 3 3 4 28 2 54 l-3 49 -8 -49z"/>
<path d="M2458 2371 c-11 -137 -10 -237 2 -225 7 7 9 69 8 165 l-3 154 -7 -94z"/>
<path d="M1204 2235 c0 -71 1 -99 3 -62 2 37 2 96 0 130 -2 34 -3 4 -3 -68z"/>
<path d="M2433 1920 c0 -30 2 -43 4 -27 2 15 2 39 0 55 -2 15 -4 2 -4 -28z"/>
<path d="M2367 713 c-3 -65 -1 -122 4 -128 5 -5 9 42 9 118 0 70 -2 127 -4
127 -2 0 -6 -53 -9 -117z"/>
<path d="M1113 495 c0 -22 2 -30 4 -17 2 12 2 30 0 40 -3 9 -5 -1 -4 -23z"/>
<path d="M1107 377 c-5 -27 -6 -51 -3 -55 12 -12 17 7 14 54 l-3 49 -8 -48z"/>
<path d="M2338 257 c-5 -10 -8 -38 -8 -62 0 -30 -5 -47 -16 -53 -9 -5 -15 -15
-12 -22 2 -8 10 -6 26 7 20 16 23 26 20 83 -2 41 -6 58 -10 47z"/>
<path d="M1078 194 c-5 -4 -8 -14 -8 -22 0 -9 -7 -24 -17 -34 -15 -17 -15 -18
6 -18 12 0 24 6 27 14 8 20 1 70 -8 60z"/>
<path d="M590 120 c27 -21 91 -34 131 -28 16 3 8 7 -26 12 -27 4 -62 14 -77
22 -38 21 -57 17 -28 -6z"/>
<path d="M1830 125 c0 -9 5 -15 11 -13 6 2 11 8 11 13 0 5 -5 11 -11 13 -6 2
-11 -4 -11 -13z"/>
<path d="M975 100 c-3 -5 3 -10 14 -10 11 0 23 5 26 10 3 6 -3 10 -14 10 -11
0 -23 -4 -26 -10z"/>
</g>
</svg>
