<?xml version="1.0" standalone="no"?>
<!DOCTYPE svg PUBLIC "-//W3C//DTD SVG 20010904//EN"
 "http://www.w3.org/TR/2001/REC-SVG-20010904/DTD/svg10.dtd">
<svg version="1.0" xmlns="http://www.w3.org/2000/svg"
 width="660.000000pt" height="831.000000pt" viewBox="0 0 660.000000 831.000000"
 preserveAspectRatio="xMidYMid meet">
<metadata>
Created by potrace 1.10, written by Peter Selinger 2001-2011
</metadata>
<g transform="translate(0.000000,831.000000) scale(0.100000,-0.100000)"
fill="#000000" stroke="none">
<path d="M3045 8128 c-229 -7 -434 -29 -506 -53 -52 -18 -72 -36 -122 -113
-19 -29 -109 -122 -200 -207 -173 -161 -206 -183 -382 -250 -33 -13 -92 -37
-130 -55 -39 -18 -110 -48 -160 -67 -49 -19 -115 -46 -145 -60 -30 -14 -90
-38 -132 -54 -43 -15 -96 -38 -119 -49 -22 -12 -91 -41 -151 -65 -149 -60
-190 -86 -240 -153 -46 -61 -67 -103 -93 -192 -66 -229 -82 -300 -120 -535 -9
-55 -23 -127 -30 -160 -16 -71 -37 -204 -60 -370 -30 -220 -47 -329 -61 -392
-8 -34 -14 -78 -14 -97 0 -19 -6 -77 -14 -128 -8 -51 -22 -169 -31 -263 -9
-93 -21 -210 -26 -260 -5 -49 -12 -124 -14 -165 -3 -41 -12 -142 -20 -225 -18
-188 -33 -402 -45 -649 -6 -105 -15 -281 -20 -391 -6 -110 -12 -572 -13 -1027
l-2 -826 24 -26 c14 -14 30 -26 37 -26 22 0 44 -30 44 -60 0 -36 18 -77 38
-85 8 -3 71 -10 141 -16 207 -18 495 5 532 42 12 12 19 33 19 59 0 41 3 45 64
93 l29 23 3 325 c2 178 9 421 14 539 6 118 15 319 20 445 6 127 14 268 20 315
5 47 10 114 10 150 0 36 7 126 15 200 8 74 22 214 30 310 21 238 44 431 61
514 8 38 14 82 14 99 0 18 7 65 14 107 8 41 19 108 25 149 9 70 23 102 37 88
4 -4 11 -44 15 -89 4 -46 12 -110 17 -143 30 -173 44 -414 39 -650 -5 -230
-11 -296 -43 -450 -8 -38 -24 -117 -35 -175 -18 -92 -38 -171 -69 -275 -47
-156 -47 -170 0 -198 35 -21 36 -30 15 -142 -23 -130 -45 -297 -45 -346 0 -25
-6 -106 -14 -180 -8 -74 -22 -226 -30 -339 -9 -113 -22 -250 -29 -305 -6 -55
-12 -185 -12 -290 l0 -190 106 -52 c291 -142 844 -274 1089 -260 241 15 404
96 536 268 l45 59 333 0 334 0 55 -69 c219 -270 456 -317 1023 -200 132 27
235 56 414 116 96 32 289 132 302 157 12 23 -6 359 -27 511 -17 113 -43 380
-75 750 -9 104 -26 226 -46 340 -22 123 -19 147 17 174 29 21 30 26 26 74 -2
29 -14 77 -26 107 -25 66 -53 178 -75 315 -9 55 -23 132 -31 170 -54 267 -54
742 0 1056 8 47 15 110 15 140 0 67 8 99 25 99 17 0 23 -29 35 -148 5 -53 14
-113 20 -132 5 -19 10 -50 10 -69 0 -19 7 -73 15 -120 28 -166 53 -414 75
-746 5 -77 13 -183 19 -235 10 -89 26 -320 52 -740 6 -96 13 -355 15 -575 3
-220 7 -414 10 -431 3 -23 16 -39 44 -58 36 -24 40 -30 40 -69 0 -83 29 -97
230 -118 113 -11 268 -7 413 11 75 9 96 25 97 72 0 48 17 76 50 83 57 13 61
29 61 275 2 984 -16 1760 -52 2285 -6 83 -14 211 -19 285 -5 74 -14 159 -19
189 -6 29 -11 76 -11 104 0 28 -6 103 -14 166 -8 64 -22 195 -31 291 -9 96
-21 209 -27 250 -5 41 -14 109 -18 150 -4 41 -13 100 -18 130 -10 51 -16 92
-57 355 -20 128 -43 246 -60 310 -17 60 -39 181 -60 330 -16 110 -35 201 -60
285 -8 25 -24 81 -36 125 -32 117 -66 180 -127 236 -62 57 -116 86 -216 118
-38 12 -88 32 -110 43 -22 11 -87 40 -145 63 -99 41 -192 81 -541 237 -74 33
-164 72 -199 86 -53 23 -91 53 -237 191 -96 90 -174 168 -174 173 0 16 -70
102 -93 115 -45 24 -326 53 -572 59 -104 2 -208 6 -230 7 -22 1 -134 -1 -250
-5z m646 -83 c298 -22 334 -31 311 -77 -6 -13 -19 -44 -30 -69 -30 -71 -117
-185 -154 -201 -26 -12 -53 -13 -128 -7 -137 12 -809 9 -836 -3 -18 -8 -30 -6
-56 9 -37 21 -120 119 -148 173 -24 47 -35 117 -21 134 12 14 123 30 311 45
175 14 536 12 751 -4z m421 -167 c44 -126 45 -144 28 -363 -18 -226 -31 -318
-53 -365 -39 -84 -218 -340 -237 -340 -5 0 -33 30 -63 68 -77 96 -210 239
-294 317 -40 37 -73 71 -73 76 0 12 12 21 123 95 263 173 417 327 514 513 14
28 29 49 33 46 4 -2 14 -24 22 -47z m-1536 -39 c61 -104 111 -169 191 -247
100 -96 211 -182 316 -242 53 -30 98 -61 101 -68 4 -8 -44 -63 -117 -135 -68
-67 -162 -170 -211 -229 -48 -60 -91 -108 -94 -108 -32 1 -171 199 -239 340
-26 55 -53 247 -69 510 -5 82 -3 104 16 160 26 76 38 100 49 100 5 0 31 -37
57 -81z m336 -194 c45 -30 56 -31 60 -5 l3 21 17 -21 c17 -19 17 -20 -2 -20
-28 0 -25 -18 5 -32 22 -10 27 -8 46 15 14 19 30 27 52 27 18 0 63 2 102 4 38
3 74 1 80 -4 6 -5 24 -6 40 -4 17 3 41 5 55 5 14 -1 45 -1 70 -2 62 0 81 -19
67 -65 -10 -34 -12 -35 -54 -30 -60 6 -101 -11 -105 -44 -3 -23 -7 -25 -55
-26 -50 -2 -54 1 -73 32 -12 18 -26 35 -33 37 -7 2 -10 7 -7 10 3 4 19 0 34
-8 16 -8 48 -15 72 -15 48 0 57 17 29 54 -12 16 -22 17 -69 11 -31 -3 -56 -11
-56 -16 0 -6 -6 -9 -12 -8 -26 3 -36 -2 -41 -20 -3 -15 -11 -18 -27 -14 -43
11 -16 -19 30 -34 25 -8 52 -23 60 -33 8 -10 25 -23 38 -29 19 -10 23 -9 29 6
6 15 8 14 13 -7 5 -20 12 -25 36 -23 16 1 30 7 32 13 2 5 10 10 18 10 8 0 17
7 20 15 4 10 13 13 25 10 12 -4 23 1 31 14 7 12 21 21 30 21 10 0 35 16 57 35
21 19 44 35 50 35 16 0 14 11 -6 25 -9 7 -14 19 -10 28 8 21 64 32 83 16 12
-9 17 -10 23 -1 8 14 81 45 81 35 -1 -13 -23 -37 -70 -74 -50 -40 -208 -149
-216 -149 -6 0 -99 -45 -133 -64 -28 -17 -61 -8 -132 36 -25 15 -49 28 -53 28
-10 0 -122 78 -136 95 -7 8 -17 15 -22 15 -14 0 -138 100 -138 111 0 16 24 10
62 -16z m108 -758 c0 -6 6 -18 14 -26 7 -9 32 -52 56 -97 l42 -81 -37 -98
c-100 -269 -124 -372 -150 -655 -35 -386 -46 -485 -54 -493 -6 -6 -14 6 -20
29 -5 22 -20 75 -32 119 -12 44 -25 94 -29 110 -4 17 -12 41 -18 55 -14 35
-38 122 -57 205 -19 84 -41 172 -60 240 -20 77 -42 180 -60 285 -18 108 -38
217 -56 305 -21 105 -23 145 -7 145 8 0 20 -11 26 -24 9 -21 39 -58 142 -178
8 -10 21 -18 30 -18 9 0 62 52 120 115 l104 115 23 -22 c13 -12 23 -26 23 -31z
m1037 -39 c-9 -40 -24 -118 -33 -173 -15 -92 -54 -282 -75 -365 -21 -85 -99
-380 -114 -435 -10 -33 -37 -135 -61 -227 -41 -158 -59 -208 -76 -208 -5 0 -8
8 -8 18 -2 46 -21 295 -34 442 -28 289 -35 325 -131 622 -19 59 -40 116 -47
127 -10 17 -5 32 37 113 27 51 57 110 68 131 11 21 26 37 36 37 10 0 56 -43
102 -96 93 -107 119 -134 130 -134 10 0 116 123 163 188 51 70 63 58 43 -40z
m-812 -248 c-3 -5 -13 -10 -21 -10 -8 0 -14 5 -14 10 0 6 9 10 21 10 11 0 17
-4 14 -10z m-195 -646 c0 -14 -4 -23 -9 -20 -5 3 -7 15 -4 26 7 28 13 25 13
-6z m-2085 -4718 c0 -41 -42 -56 -191 -66 -156 -12 -375 0 -399 20 -8 7 -15
23 -15 36 l0 24 223 3 c380 5 382 5 382 -17z m5284 9 c12 -13 -26 -60 -54 -66
-52 -11 -405 -10 -472 2 -43 8 -68 17 -77 31 -30 42 -21 44 296 41 165 -1 303
-5 307 -8z"/>
<path d="M2 7935 c0 -141 1 -147 13 -100 17 64 17 136 0 200 -12 47 -13 41
-13 -100z"/>
</g>
</svg>
